<svg xmlns="http://www.w3.org/2000/svg" viewBox="0 0 64 64" role="img" aria-label="WhatsApp">
  <circle cx="32" cy="32" r="30" fill="#22c55e"/>
  <path fill="#fff" d="M17.8 48.9 20 40.8a19 19 0 1 1 7.3 5.8l-9.5 2.3Zm9.9-7.4.6.4a15 15 0 1 0-4.9-4.7l.4.7-1.1 4.1 5-1.2.1.7Zm13.1-6.9c-.8-.4-4.6-2.3-5.3-2.5-.7-.3-1.2-.4-1.7.4-.5.8-2 2.5-2.4 3-.4.5-.9.6-1.7.2-.8-.4-3.3-1.2-6.2-3.9-2.3-2.1-3.9-4.6-4.3-5.4-.4-.8 0-1.2.3-1.6.3-.3.8-.9 1.1-1.3.4-.4.5-.8.8-1.3.3-.5.1-1-.1-1.4-.2-.4-1.7-4.1-2.3-5.6-.6-1.5-1.2-1.3-1.7-1.3h-1.4c-.5 0-1.4.2-2.1 1-.7.8-2.8 2.7-2.8 6.6s2.9 7.7 3.3 8.2c.4.5 5.6 8.5 13.6 11.9 1.9.8 3.4 1.3 4.5 1.7 1.9.6 3.7.5 5.1.3 1.6-.2 4.6-1.9 5.3-3.7.7-1.8.7-3.4.5-3.7-.2-.3-.7-.5-1.5-.9Z"/>
</svg>
